<svg xmlns="http://www.w3.org/2000/svg" viewBox="0 0 36.06 39.64"><defs><style>.cls-1{fill:#fefefe;}.cls-1,.cls-3{fill-rule:evenodd;}.cls-2{fill:none;stroke:#1a1102;stroke-linecap:round;stroke-linejoin:round;stroke-width:1.89px;}.cls-3{fill:#47d7ac;}</style></defs><title>Asset 2</title><g id="Layer_2" data-name="Layer 2"><g id="Layer_1-2" data-name="Layer 1"><path class="cls-1" d="M1,29.69H35.11V4.49H1Z"/><path class="cls-2" d="M1,29.68H35.11V4.49H1Z"/><path class="cls-1" d="M1,12.5V38.7H25.7l9.41-9.36V12.5Z"/><path class="cls-2" d="M25.7,38.7H.94V12.5H35.11V29.34M18,.94V7.75M8.48.94V7.75m19-6.8v6.8"/><path class="cls-3" d="M13.1,33.34l6.24-13H13.55a.5.5,0,0,1-.48-.47V17.59a.5.5,0,0,1,.48-.48H24.08a.5.5,0,0,1,.48.48v.17L17.09,33.37a1,1,0,0,1-1,.72H13.59a.48.48,0,0,1-.5-.47v-.28Zm12.63,5.13V29.69h9.39Z"/><path class="cls-2" d="M25.73,38.47V29.69h9.39Z"/></g></g></svg>