<svg xmlns="http://www.w3.org/2000/svg" viewBox="0 0 47.23 36.84"><defs><style>.cls-1,.cls-2{fill:none;stroke-linecap:round;stroke-linejoin:round;stroke-width:1.89px;}.cls-1{stroke:#1a1102;}.cls-2{stroke:#47d7ac;}.cls-3{fill:#47d7ac;fill-rule:evenodd;}</style></defs><title>Asset 3</title><g id="Layer_2" data-name="Layer 2"><g id="Layer_1-2" data-name="Layer 1"><path class="cls-1" d="M.94,22.64H46.29V.94H.94ZM35.18,35.9H.94V.94H46.29v21.7M5.55,27.27h0Zm0,4.18h0Z"/><path class="cls-2" d="M37.93,32l3,3.9,5.29-9.31"/><path class="cls-3" d="M29.33,6.41c2.14,1.17,2.1,3.21,1.58,6.24a7.09,7.09,0,0,1-2.61,3.81,6.65,6.65,0,0,1-5.84.38c-7.19-3.2-2-15.27,6.86-10.42"/><path class="cls-1" d="M31.32,11.88a7.73,7.73,0,1,1-7.73-7.75,7.74,7.74,0,0,1,7.73,7.75Zm-6.86-1.45a8.71,8.71,0,0,1,3.43.23,7.59,7.59,0,0,1-2.57,2.42c-1.64.82-3.08.67-3.42-.26s1-2.12,2.56-2.39Zm3.43.23a27.63,27.63,0,0,1,9.31-4Z"/></g></g></svg>